<svg width="82" height="30" viewBox="0 0 82 30" fill="none" xmlns="http://www.w3.org/2000/svg">
<path d="M0.664062 0.71875H6.40625L13.3594 13.2188H13.6328L20.5859 0.71875H26.3281L16.0547 18.4141V29H10.9766V18.4141L0.664062 0.71875ZM47.4609 0.71875H52.5781V19.1953C52.5586 25.2695 47.9883 29.4297 41.0938 29.4297C34.1602 29.4297 29.6289 25.2695 29.6094 19.1953V0.71875H34.6875V18.7656C34.707 22.3398 37.1875 24.8789 41.0938 24.8984C45 24.8789 47.4609 22.3398 47.4609 18.7656V0.71875ZM81.0547 0.71875V29H76.5234L63.125 9.66406H62.8906V29H57.8125V0.71875H62.4219L75.7422 20.0547H76.0156V0.71875H81.0547Z" fill="black"/>
</svg>
